<mxfile host="Electron" modified="2024-05-20T10:39:53.255Z" agent="Mozilla/5.0 (Windows NT 10.0; Win64; x64) AppleWebKit/537.36 (KHTML, like Gecko) draw.io/24.4.0 Chrome/120.0.6099.109 Electron/28.1.0 Safari/537.36" etag="xMXH_NYyCQFCpqCXZz_i" version="24.4.0" type="device">
  <diagram id="R2lEEEUBdFMjLlhIrx00" name="Page-1">
    <mxGraphModel dx="1224" dy="831" grid="1" gridSize="10" guides="1" tooltips="1" connect="1" arrows="1" fold="1" page="1" pageScale="1" pageWidth="850" pageHeight="1100" math="0" shadow="0" extFonts="Permanent Marker^https://fonts.googleapis.com/css?family=Permanent+Marker">
      <root>
        <mxCell id="0" />
        <mxCell id="1" parent="0" />
        <mxCell id="I4I_KGAIhc6EuYCeUxoU-5" value="Preempt[id]" style="edgeStyle=orthogonalEdgeStyle;rounded=0;orthogonalLoop=1;jettySize=auto;html=1;exitX=0;exitY=0.25;exitDx=0;exitDy=0;entryX=0.25;entryY=0;entryDx=0;entryDy=0;" edge="1" parent="1" source="QVgthP9FrfB6wMeQJFfC-2" target="QVgthP9FrfB6wMeQJFfC-7">
          <mxGeometry relative="1" as="geometry" />
        </mxCell>
        <mxCell id="I4I_KGAIhc6EuYCeUxoU-6" value="Resume[id]" style="edgeStyle=orthogonalEdgeStyle;rounded=0;orthogonalLoop=1;jettySize=auto;html=1;exitX=0;exitY=0.75;exitDx=0;exitDy=0;entryX=0.75;entryY=0;entryDx=0;entryDy=0;endArrow=block;endFill=0;" edge="1" parent="1" source="QVgthP9FrfB6wMeQJFfC-2" target="QVgthP9FrfB6wMeQJFfC-7">
          <mxGeometry relative="1" as="geometry" />
        </mxCell>
        <mxCell id="QVgthP9FrfB6wMeQJFfC-2" value="Scheduler" style="rounded=0;whiteSpace=wrap;html=1;" parent="1" vertex="1">
          <mxGeometry x="430" y="120" width="120" height="60" as="geometry" />
        </mxCell>
        <mxCell id="I4I_KGAIhc6EuYCeUxoU-4" value="Ready" style="edgeStyle=orthogonalEdgeStyle;rounded=0;orthogonalLoop=1;jettySize=auto;html=1;exitX=0.5;exitY=0;exitDx=0;exitDy=0;entryX=0;entryY=0.5;entryDx=0;entryDy=0;" edge="1" parent="1" source="QVgthP9FrfB6wMeQJFfC-7" target="QVgthP9FrfB6wMeQJFfC-2">
          <mxGeometry relative="1" as="geometry" />
        </mxCell>
        <mxCell id="I4I_KGAIhc6EuYCeUxoU-16" value="" style="group" vertex="1" connectable="0" parent="1">
          <mxGeometry x="60" y="140" width="120" height="80" as="geometry" />
        </mxCell>
        <mxCell id="I4I_KGAIhc6EuYCeUxoU-13" value="chan" style="endArrow=classic;html=1;rounded=0;" edge="1" parent="I4I_KGAIhc6EuYCeUxoU-16">
          <mxGeometry y="10" width="50" height="50" relative="1" as="geometry">
            <mxPoint as="sourcePoint" />
            <mxPoint x="120" as="targetPoint" />
            <mxPoint as="offset" />
          </mxGeometry>
        </mxCell>
        <mxCell id="I4I_KGAIhc6EuYCeUxoU-14" value="urgent chan" style="endArrow=block;html=1;rounded=0;endFill=0;" edge="1" parent="I4I_KGAIhc6EuYCeUxoU-16">
          <mxGeometry y="10" width="50" height="50" relative="1" as="geometry">
            <mxPoint y="40" as="sourcePoint" />
            <mxPoint x="120" y="40" as="targetPoint" />
            <mxPoint as="offset" />
          </mxGeometry>
        </mxCell>
        <mxCell id="I4I_KGAIhc6EuYCeUxoU-15" value="broadcast chan" style="endArrow=classic;html=1;rounded=0;endFill=1;dashed=1;" edge="1" parent="I4I_KGAIhc6EuYCeUxoU-16">
          <mxGeometry y="10" width="50" height="50" relative="1" as="geometry">
            <mxPoint y="80" as="sourcePoint" />
            <mxPoint x="120" y="80" as="targetPoint" />
            <mxPoint as="offset" />
          </mxGeometry>
        </mxCell>
        <mxCell id="I4I_KGAIhc6EuYCeUxoU-17" value="" style="group" vertex="1" connectable="0" parent="1">
          <mxGeometry x="60" y="280" width="620" height="60" as="geometry" />
        </mxCell>
        <mxCell id="I4I_KGAIhc6EuYCeUxoU-8" value="start_record[id]" style="edgeStyle=orthogonalEdgeStyle;rounded=0;orthogonalLoop=1;jettySize=auto;html=1;exitX=0;exitY=0.25;exitDx=0;exitDy=0;entryX=1;entryY=0.25;entryDx=0;entryDy=0;dashed=1;" edge="1" parent="I4I_KGAIhc6EuYCeUxoU-17" source="QVgthP9FrfB6wMeQJFfC-7" target="I4I_KGAIhc6EuYCeUxoU-7">
          <mxGeometry relative="1" as="geometry" />
        </mxCell>
        <mxCell id="I4I_KGAIhc6EuYCeUxoU-9" value="stop_record[id]" style="edgeStyle=orthogonalEdgeStyle;rounded=0;orthogonalLoop=1;jettySize=auto;html=1;exitX=0;exitY=0.75;exitDx=0;exitDy=0;entryX=1;entryY=0.75;entryDx=0;entryDy=0;dashed=1;" edge="1" parent="I4I_KGAIhc6EuYCeUxoU-17" source="QVgthP9FrfB6wMeQJFfC-7" target="I4I_KGAIhc6EuYCeUxoU-7">
          <mxGeometry relative="1" as="geometry" />
        </mxCell>
        <mxCell id="QVgthP9FrfB6wMeQJFfC-7" value="Control[pid_t]" style="rounded=0;whiteSpace=wrap;html=1;" parent="I4I_KGAIhc6EuYCeUxoU-17" vertex="1">
          <mxGeometry x="240" width="120" height="60" as="geometry" />
        </mxCell>
        <mxCell id="I4I_KGAIhc6EuYCeUxoU-10" value="SensorOn[id]" style="edgeStyle=orthogonalEdgeStyle;rounded=0;orthogonalLoop=1;jettySize=auto;html=1;exitX=0;exitY=0.25;exitDx=0;exitDy=0;entryX=1;entryY=0.25;entryDx=0;entryDy=0;endArrow=block;endFill=0;" edge="1" parent="I4I_KGAIhc6EuYCeUxoU-17" source="I4I_KGAIhc6EuYCeUxoU-1" target="QVgthP9FrfB6wMeQJFfC-7">
          <mxGeometry relative="1" as="geometry" />
        </mxCell>
        <mxCell id="I4I_KGAIhc6EuYCeUxoU-11" value="SensorOff[id]" style="edgeStyle=orthogonalEdgeStyle;rounded=0;orthogonalLoop=1;jettySize=auto;html=1;exitX=0;exitY=0.75;exitDx=0;exitDy=0;entryX=1;entryY=0.75;entryDx=0;entryDy=0;endArrow=block;endFill=0;" edge="1" parent="I4I_KGAIhc6EuYCeUxoU-17" source="I4I_KGAIhc6EuYCeUxoU-1" target="QVgthP9FrfB6wMeQJFfC-7">
          <mxGeometry relative="1" as="geometry" />
        </mxCell>
        <mxCell id="I4I_KGAIhc6EuYCeUxoU-1" value="Sensor[pid_t]" style="rounded=0;whiteSpace=wrap;html=1;" vertex="1" parent="I4I_KGAIhc6EuYCeUxoU-17">
          <mxGeometry x="500" width="120" height="60" as="geometry" />
        </mxCell>
        <mxCell id="I4I_KGAIhc6EuYCeUxoU-7" value="Item[pid_t, ...]" style="rounded=0;whiteSpace=wrap;html=1;" vertex="1" parent="I4I_KGAIhc6EuYCeUxoU-17">
          <mxGeometry width="120" height="60" as="geometry" />
        </mxCell>
        <mxCell id="I4I_KGAIhc6EuYCeUxoU-18" value="" style="group" vertex="1" connectable="0" parent="1">
          <mxGeometry x="60" y="420" width="620" height="60" as="geometry" />
        </mxCell>
        <mxCell id="I4I_KGAIhc6EuYCeUxoU-19" value="start_record[id]" style="edgeStyle=orthogonalEdgeStyle;rounded=0;orthogonalLoop=1;jettySize=auto;html=1;exitX=0;exitY=0.25;exitDx=0;exitDy=0;entryX=1;entryY=0.25;entryDx=0;entryDy=0;dashed=1;" edge="1" parent="I4I_KGAIhc6EuYCeUxoU-18" source="I4I_KGAIhc6EuYCeUxoU-21" target="I4I_KGAIhc6EuYCeUxoU-25">
          <mxGeometry relative="1" as="geometry" />
        </mxCell>
        <mxCell id="I4I_KGAIhc6EuYCeUxoU-20" value="stop_record[id]" style="edgeStyle=orthogonalEdgeStyle;rounded=0;orthogonalLoop=1;jettySize=auto;html=1;exitX=0;exitY=0.75;exitDx=0;exitDy=0;entryX=1;entryY=0.75;entryDx=0;entryDy=0;dashed=1;" edge="1" parent="I4I_KGAIhc6EuYCeUxoU-18" source="I4I_KGAIhc6EuYCeUxoU-21" target="I4I_KGAIhc6EuYCeUxoU-25">
          <mxGeometry relative="1" as="geometry" />
        </mxCell>
        <mxCell id="I4I_KGAIhc6EuYCeUxoU-21" value="Control[pid_t]" style="rounded=0;whiteSpace=wrap;html=1;" vertex="1" parent="I4I_KGAIhc6EuYCeUxoU-18">
          <mxGeometry x="240" width="120" height="60" as="geometry" />
        </mxCell>
        <mxCell id="I4I_KGAIhc6EuYCeUxoU-22" value="SensorOn[id]" style="edgeStyle=orthogonalEdgeStyle;rounded=0;orthogonalLoop=1;jettySize=auto;html=1;exitX=0;exitY=0.25;exitDx=0;exitDy=0;entryX=1;entryY=0.25;entryDx=0;entryDy=0;endArrow=block;endFill=0;" edge="1" parent="I4I_KGAIhc6EuYCeUxoU-18" source="I4I_KGAIhc6EuYCeUxoU-24" target="I4I_KGAIhc6EuYCeUxoU-21">
          <mxGeometry relative="1" as="geometry" />
        </mxCell>
        <mxCell id="I4I_KGAIhc6EuYCeUxoU-23" value="SensorOff[id]" style="edgeStyle=orthogonalEdgeStyle;rounded=0;orthogonalLoop=1;jettySize=auto;html=1;exitX=0;exitY=0.75;exitDx=0;exitDy=0;entryX=1;entryY=0.75;entryDx=0;entryDy=0;endArrow=block;endFill=0;" edge="1" parent="I4I_KGAIhc6EuYCeUxoU-18" source="I4I_KGAIhc6EuYCeUxoU-24" target="I4I_KGAIhc6EuYCeUxoU-21">
          <mxGeometry relative="1" as="geometry" />
        </mxCell>
        <mxCell id="I4I_KGAIhc6EuYCeUxoU-24" value="Sensor[pid_t]" style="rounded=0;whiteSpace=wrap;html=1;" vertex="1" parent="I4I_KGAIhc6EuYCeUxoU-18">
          <mxGeometry x="500" width="120" height="60" as="geometry" />
        </mxCell>
        <mxCell id="I4I_KGAIhc6EuYCeUxoU-25" value="Item[pid_t, ...]" style="rounded=0;whiteSpace=wrap;html=1;" vertex="1" parent="I4I_KGAIhc6EuYCeUxoU-18">
          <mxGeometry width="120" height="60" as="geometry" />
        </mxCell>
        <mxCell id="I4I_KGAIhc6EuYCeUxoU-26" value="x&amp;nbsp; NUM_OF_BELTS" style="endArrow=none;dashed=1;html=1;dashPattern=1 3;strokeWidth=2;rounded=0;exitX=0.5;exitY=1;exitDx=0;exitDy=0;entryX=0.5;entryY=0;entryDx=0;entryDy=0;" edge="1" parent="1" source="QVgthP9FrfB6wMeQJFfC-7" target="I4I_KGAIhc6EuYCeUxoU-21">
          <mxGeometry width="50" height="50" relative="1" as="geometry">
            <mxPoint x="390" y="370" as="sourcePoint" />
            <mxPoint x="440" y="320" as="targetPoint" />
          </mxGeometry>
        </mxCell>
        <mxCell id="I4I_KGAIhc6EuYCeUxoU-27" value="" style="endArrow=none;dashed=1;html=1;dashPattern=1 3;strokeWidth=2;rounded=0;exitX=0.5;exitY=1;exitDx=0;exitDy=0;entryX=0.5;entryY=0;entryDx=0;entryDy=0;" edge="1" parent="1">
          <mxGeometry width="50" height="50" relative="1" as="geometry">
            <mxPoint x="489.69" y="340" as="sourcePoint" />
            <mxPoint x="489.69" y="420" as="targetPoint" />
          </mxGeometry>
        </mxCell>
        <mxCell id="I4I_KGAIhc6EuYCeUxoU-28" value="" style="endArrow=none;dashed=1;html=1;dashPattern=1 3;strokeWidth=2;rounded=0;exitX=0.5;exitY=1;exitDx=0;exitDy=0;entryX=0.5;entryY=0;entryDx=0;entryDy=0;" edge="1" parent="1">
          <mxGeometry width="50" height="50" relative="1" as="geometry">
            <mxPoint x="620" y="340" as="sourcePoint" />
            <mxPoint x="620" y="420" as="targetPoint" />
          </mxGeometry>
        </mxCell>
        <mxCell id="I4I_KGAIhc6EuYCeUxoU-29" value="" style="endArrow=none;dashed=1;html=1;dashPattern=1 3;strokeWidth=2;rounded=0;exitX=0.5;exitY=1;exitDx=0;exitDy=0;entryX=0.5;entryY=0;entryDx=0;entryDy=0;" edge="1" parent="1">
          <mxGeometry width="50" height="50" relative="1" as="geometry">
            <mxPoint x="120" y="340" as="sourcePoint" />
            <mxPoint x="120" y="420" as="targetPoint" />
          </mxGeometry>
        </mxCell>
        <mxCell id="I4I_KGAIhc6EuYCeUxoU-30" value="" style="endArrow=none;dashed=1;html=1;dashPattern=1 3;strokeWidth=2;rounded=0;exitX=0.5;exitY=1;exitDx=0;exitDy=0;entryX=0.5;entryY=0;entryDx=0;entryDy=0;" edge="1" parent="1">
          <mxGeometry width="50" height="50" relative="1" as="geometry">
            <mxPoint x="240" y="340" as="sourcePoint" />
            <mxPoint x="240" y="420" as="targetPoint" />
          </mxGeometry>
        </mxCell>
        <mxCell id="I4I_KGAIhc6EuYCeUxoU-57" value="guards" style="edgeStyle=orthogonalEdgeStyle;rounded=0;orthogonalLoop=1;jettySize=auto;html=1;exitX=1;exitY=0.5;exitDx=0;exitDy=0;entryX=0.5;entryY=1;entryDx=0;entryDy=0;" edge="1" parent="1" source="I4I_KGAIhc6EuYCeUxoU-55" target="I4I_KGAIhc6EuYCeUxoU-24">
          <mxGeometry relative="1" as="geometry" />
        </mxCell>
        <mxCell id="I4I_KGAIhc6EuYCeUxoU-55" value="bool sensor_detected[pid_t]" style="text;html=1;align=center;verticalAlign=middle;whiteSpace=wrap;rounded=0;" vertex="1" parent="1">
          <mxGeometry x="290" y="510" width="160" height="30" as="geometry" />
        </mxCell>
        <mxCell id="I4I_KGAIhc6EuYCeUxoU-56" style="edgeStyle=orthogonalEdgeStyle;rounded=0;orthogonalLoop=1;jettySize=auto;html=1;exitX=0.5;exitY=1;exitDx=0;exitDy=0;entryX=0;entryY=0.5;entryDx=0;entryDy=0;" edge="1" parent="1" source="I4I_KGAIhc6EuYCeUxoU-25" target="I4I_KGAIhc6EuYCeUxoU-55">
          <mxGeometry relative="1" as="geometry" />
        </mxCell>
        <mxCell id="I4I_KGAIhc6EuYCeUxoU-58" value="sets" style="edgeLabel;html=1;align=center;verticalAlign=middle;resizable=0;points=[];" vertex="1" connectable="0" parent="I4I_KGAIhc6EuYCeUxoU-56">
          <mxGeometry x="-0.0605" y="2" relative="1" as="geometry">
            <mxPoint as="offset" />
          </mxGeometry>
        </mxCell>
      </root>
    </mxGraphModel>
  </diagram>
</mxfile>
